<?xml version="1.0" encoding="UTF-8" standalone="no"?>
<!DOCTYPE svg PUBLIC "-//W3C//DTD SVG 1.1//EN"
 "http://www.w3.org/Graphics/SVG/1.1/DTD/svg11.dtd">
<!-- Generated by graphviz version 2.38.0 (20140413.2041)
 -->
<!-- Title: G Pages: 1 -->
<svg width="742pt" height="893pt"
 viewBox="0.00 0.00 742.47 893.00" xmlns="http://www.w3.org/2000/svg" xmlns:xlink="http://www.w3.org/1999/xlink">
<g id="graph0" class="graph" transform="scale(1 1) rotate(0) translate(4 889)">
<title>G</title>
<polygon fill="white" stroke="none" points="-4,4 -4,-889 738.469,-889 738.469,4 -4,4"/>
<g id="clust1" class="cluster"><title>cluster_Global</title>
<path fill="none" stroke="gray" d="M20,-8C20,-8 714.469,-8 714.469,-8 720.469,-8 726.469,-14 726.469,-20 726.469,-20 726.469,-865 726.469,-865 726.469,-871 720.469,-877 714.469,-877 714.469,-877 20,-877 20,-877 14,-877 8,-871 8,-865 8,-865 8,-20 8,-20 8,-14 14,-8 20,-8"/>
<text text-anchor="middle" x="367.234" y="-864.2" font-family="Times,serif" font-size="11.00" fill="gray">Global</text>
</g>
<g id="clust2" class="cluster"><title>cluster_\Swoole</title>
<path fill="none" stroke="gray" d="M185.814,-16C185.814,-16 436.437,-16 436.437,-16 442.437,-16 448.437,-22 448.437,-28 448.437,-28 448.437,-632 448.437,-632 448.437,-638 442.437,-644 436.437,-644 436.437,-644 185.814,-644 185.814,-644 179.814,-644 173.814,-638 173.814,-632 173.814,-632 173.814,-28 173.814,-28 173.814,-22 179.814,-16 185.814,-16"/>
<text text-anchor="middle" x="311.125" y="-631.2" font-family="Times,serif" font-size="11.00" fill="gray">Swoole</text>
</g>
<g id="clust3" class="cluster"><title>cluster_\Swoole\Http</title>
<path fill="none" stroke="gray" d="M193.814,-384C193.814,-384 254.623,-384 254.623,-384 260.623,-384 266.623,-390 266.623,-396 266.623,-396 266.623,-605 266.623,-605 266.623,-611 260.623,-617 254.623,-617 254.623,-617 193.814,-617 193.814,-617 187.814,-617 181.814,-611 181.814,-605 181.814,-605 181.814,-396 181.814,-396 181.814,-390 187.814,-384 193.814,-384"/>
<text text-anchor="middle" x="224.218" y="-604.2" font-family="Times,serif" font-size="11.00" fill="gray">Http</text>
</g>
<g id="clust4" class="cluster"><title>cluster_\Swoole\WebSocket</title>
<path fill="none" stroke="gray" d="M380.83,-124C380.83,-124 428.437,-124 428.437,-124 434.437,-124 440.437,-130 440.437,-136 440.437,-136 440.437,-237 440.437,-237 440.437,-243 434.437,-249 428.437,-249 428.437,-249 380.83,-249 380.83,-249 374.83,-249 368.83,-243 368.83,-237 368.83,-237 368.83,-136 368.83,-136 368.83,-130 374.83,-124 380.83,-124"/>
<text text-anchor="middle" x="404.633" y="-236.2" font-family="Times,serif" font-size="11.00" fill="gray">WebSocket</text>
</g>
<!-- \\Swoole\\Http\\Request -->
<g id="node1" class="node"><title>\\Swoole\\Http\\Request</title>
<polygon fill="none" stroke="black" points="255.426,-482 193.01,-482 193.01,-446 255.426,-446 255.426,-482"/>
<text text-anchor="middle" x="224.218" y="-460.7" font-family="Courier,monospace" font-size="11.00">Request</text>
</g>
<!-- \\Swoole\\Http\\Response -->
<g id="node2" class="node"><title>\\Swoole\\Http\\Response</title>
<polygon fill="none" stroke="black" points="258.527,-536 189.909,-536 189.909,-500 258.527,-500 258.527,-536"/>
<text text-anchor="middle" x="224.218" y="-514.7" font-family="Courier,monospace" font-size="11.00">Response</text>
</g>
<!-- \\Swoole\\Http\\Client -->
<g id="node3" class="node"><title>\\Swoole\\Http\\Client</title>
<polygon fill="none" stroke="black" points="251.826,-590 196.61,-590 196.61,-554 251.826,-554 251.826,-590"/>
<text text-anchor="middle" x="224.218" y="-568.7" font-family="Courier,monospace" font-size="11.00">Client</text>
</g>
<!-- \\Swoole\\Http\\Server -->
<g id="node4" class="node"><title>\\Swoole\\Http\\Server</title>
<polygon fill="none" stroke="black" points="251.826,-428 196.61,-428 196.61,-392 251.826,-392 251.826,-428"/>
<text text-anchor="middle" x="224.218" y="-406.7" font-family="Courier,monospace" font-size="11.00">Server</text>
</g>
<!-- \\swoole_server -->
<g id="node24" class="node"><title>\\swoole_server</title>
<polygon fill="none" stroke="black" points="117.721,-336 16.0928,-336 16.0928,-300 117.721,-300 117.721,-336"/>
<text text-anchor="middle" x="66.907" y="-314.7" font-family="Courier,monospace" font-size="11.00">swoole_server</text>
</g>
<!-- \\Swoole\\Http\\Server&#45;&gt;\\swoole_server -->
<g id="edge2" class="edge"><title>\\Swoole\\Http\\Server&#45;&gt;\\swoole_server</title>
<path fill="none" stroke="black" d="M196.418,-399.03C188.977,-395.726 180.977,-391.927 173.814,-388 148.618,-374.186 121.617,-356.287 101.184,-342.047"/>
<polygon fill="none" stroke="black" points="103.048,-339.078 92.8542,-336.19 99.0218,-344.805 103.048,-339.078"/>
</g>
<!-- \\Swoole\\WebSocket\\Server -->
<g id="node5" class="node"><title>\\Swoole\\WebSocket\\Server</title>
<polygon fill="none" stroke="black" points="432.241,-222 377.025,-222 377.025,-186 432.241,-186 432.241,-222"/>
<text text-anchor="middle" x="404.633" y="-200.7" font-family="Courier,monospace" font-size="11.00">Server</text>
</g>
<!-- \\Swoole\\WebSocket\\Server&#45;&gt;\\Swoole\\Http\\Server -->
<g id="edge1" class="edge"><title>\\Swoole\\WebSocket\\Server&#45;&gt;\\Swoole\\Http\\Server</title>
<path fill="none" stroke="black" d="M376.836,-206.336C361.633,-208.943 343.192,-214.439 330.623,-226 273.643,-278.406 318.209,-330.277 266.623,-388 264.866,-389.965 262.892,-391.785 260.783,-393.465"/>
<polygon fill="none" stroke="black" points="258.505,-390.779 252.158,-399.262 262.41,-396.589 258.505,-390.779"/>
</g>
<!-- \\Swoole\\WebSocket\\Frame -->
<g id="node6" class="node"><title>\\Swoole\\WebSocket\\Frame</title>
<polygon fill="none" stroke="black" points="431.633,-168 377.633,-168 377.633,-132 431.633,-132 431.633,-168"/>
<text text-anchor="middle" x="404.633" y="-146.7" font-family="Courier,monospace" font-size="11.00">Frame</text>
</g>
<!-- \\Swoole\\Server -->
<g id="node7" class="node"><title>\\Swoole\\Server</title>
<polygon fill="none" stroke="black" points="432.241,-60 377.025,-60 377.025,-24 432.241,-24 432.241,-60"/>
<text text-anchor="middle" x="404.633" y="-38.7" font-family="Courier,monospace" font-size="11.00">Server</text>
</g>
<!-- \\Swoole\\Atomic -->
<g id="node8" class="node"><title>\\Swoole\\Atomic</title>
<polygon fill="none" stroke="black" points="432.241,-617 377.025,-617 377.025,-581 432.241,-581 432.241,-617"/>
<text text-anchor="middle" x="404.633" y="-595.7" font-family="Courier,monospace" font-size="11.00">Atomic</text>
</g>
<!-- \\Swoole\\Table -->
<g id="node9" class="node"><title>\\Swoole\\Table</title>
<polygon fill="none" stroke="black" points="431.633,-293 377.633,-293 377.633,-257 431.633,-257 431.633,-293"/>
<text text-anchor="middle" x="404.633" y="-271.7" font-family="Courier,monospace" font-size="11.00">Table</text>
</g>
<!-- \\Swoole\\Buffer -->
<g id="node10" class="node"><title>\\Swoole\\Buffer</title>
<polygon fill="none" stroke="black" points="432.241,-563 377.025,-563 377.025,-527 432.241,-527 432.241,-563"/>
<text text-anchor="middle" x="404.633" y="-541.7" font-family="Courier,monospace" font-size="11.00">Buffer</text>
</g>
<!-- \\Swoole\\Redis -->
<g id="node11" class="node"><title>\\Swoole\\Redis</title>
<polygon fill="none" stroke="black" points="431.633,-401 377.633,-401 377.633,-365 431.633,-365 431.633,-401"/>
<text text-anchor="middle" x="404.633" y="-379.7" font-family="Courier,monospace" font-size="11.00">Redis</text>
</g>
<!-- \\Swoole\\Lock -->
<g id="node12" class="node"><title>\\Swoole\\Lock</title>
<polygon fill="none" stroke="black" points="431.633,-455 377.633,-455 377.633,-419 431.633,-419 431.633,-455"/>
<text text-anchor="middle" x="404.633" y="-433.7" font-family="Courier,monospace" font-size="11.00">Lock</text>
</g>
<!-- \\Swoole\\Process -->
<g id="node13" class="node"><title>\\Swoole\\Process</title>
<polygon fill="none" stroke="black" points="435.841,-347 373.425,-347 373.425,-311 435.841,-311 435.841,-347"/>
<text text-anchor="middle" x="404.633" y="-325.7" font-family="Courier,monospace" font-size="11.00">Process</text>
</g>
<!-- \\Swoole\\Timer -->
<g id="node14" class="node"><title>\\Swoole\\Timer</title>
<polygon fill="none" stroke="black" points="431.633,-114 377.633,-114 377.633,-78 431.633,-78 431.633,-114"/>
<text text-anchor="middle" x="404.633" y="-92.7" font-family="Courier,monospace" font-size="11.00">Timer</text>
</g>
<!-- \\Swoole\\Client -->
<g id="node15" class="node"><title>\\Swoole\\Client</title>
<polygon fill="none" stroke="black" points="432.241,-509 377.025,-509 377.025,-473 432.241,-473 432.241,-509"/>
<text text-anchor="middle" x="404.633" y="-487.7" font-family="Courier,monospace" font-size="11.00">Client</text>
</g>
<!-- \\swoole_server_port -->
<g id="node16" class="node"><title>\\swoole_server_port</title>
<polygon fill="none" stroke="black" points="701.876,-760 567.237,-760 567.237,-724 701.876,-724 701.876,-760"/>
<text text-anchor="middle" x="634.556" y="-738.7" font-family="Courier,monospace" font-size="11.00">swoole_server_port</text>
</g>
<!-- \\swoole_http_client -->
<g id="node17" class="node"><title>\\swoole_http_client</title>
<polygon fill="none" stroke="black" points="471.953,-850 337.314,-850 337.314,-814 471.953,-814 471.953,-850"/>
<text text-anchor="middle" x="404.633" y="-828.7" font-family="Courier,monospace" font-size="11.00">swoole_http_client</text>
</g>
<!-- \\swoole_http_client&#45;&gt;\\Swoole\\Http\\Client -->
<g id="edge3" class="edge"><title>\\swoole_http_client&#45;&gt;\\Swoole\\Http\\Client</title>
<path fill="none" stroke="black" d="M342.434,-813.8C338.184,-811.234 334.182,-808.317 330.623,-805 269.341,-747.9 241.138,-648.421 230.541,-600.034"/>
<polygon fill="none" stroke="black" points="233.966,-599.313 228.486,-590.245 227.115,-600.751 233.966,-599.313"/>
</g>
<!-- \\swoole_http_request -->
<g id="node18" class="node"><title>\\swoole_http_request</title>
<polygon fill="none" stroke="black" points="475.554,-796 333.712,-796 333.712,-760 475.554,-760 475.554,-796"/>
<text text-anchor="middle" x="404.633" y="-774.7" font-family="Courier,monospace" font-size="11.00">swoole_http_request</text>
</g>
<!-- \\swoole_http_request&#45;&gt;\\Swoole\\Http\\Request -->
<g id="edge4" class="edge"><title>\\swoole_http_request&#45;&gt;\\Swoole\\Http\\Request</title>
<path fill="none" stroke="black" d="M340.712,-759.802C337.011,-757.244 333.593,-754.326 330.623,-751 251.353,-662.239 335.492,-588.052 266.623,-491 265.598,-489.557 264.47,-488.17 263.262,-486.842"/>
<polygon fill="none" stroke="black" points="265.368,-484.025 255.625,-479.861 260.645,-489.192 265.368,-484.025"/>
</g>
<!-- \\swoole_http_response -->
<g id="node19" class="node"><title>\\swoole_http_response</title>
<polygon fill="none" stroke="black" points="478.655,-742 330.612,-742 330.612,-706 478.655,-706 478.655,-742"/>
<text text-anchor="middle" x="404.633" y="-720.7" font-family="Courier,monospace" font-size="11.00">swoole_http_response</text>
</g>
<!-- \\swoole_http_response&#45;&gt;\\Swoole\\Http\\Request -->
<g id="edge5" class="edge"><title>\\swoole_http_response&#45;&gt;\\Swoole\\Http\\Request</title>
<path fill="none" stroke="black" d="M341.277,-705.824C337.394,-703.259 333.784,-700.334 330.623,-697 264.65,-627.436 324.42,-567.491 266.623,-491 265.556,-489.588 264.392,-488.228 263.154,-486.921"/>
<polygon fill="none" stroke="black" points="265.202,-484.059 255.407,-480.022 260.547,-489.286 265.202,-484.059"/>
</g>
<!-- \\swoole_http_server -->
<g id="node20" class="node"><title>\\swoole_http_server</title>
<polygon fill="none" stroke="black" points="471.953,-688 337.314,-688 337.314,-652 471.953,-652 471.953,-688"/>
<text text-anchor="middle" x="404.633" y="-666.7" font-family="Courier,monospace" font-size="11.00">swoole_http_server</text>
</g>
<!-- \\swoole_http_server&#45;&gt;\\Swoole\\Http\\Server -->
<g id="edge6" class="edge"><title>\\swoole_http_server&#45;&gt;\\Swoole\\Http\\Server</title>
<path fill="none" stroke="black" d="M336.99,-653.385C334.726,-651.754 332.59,-649.964 330.623,-648 261.265,-578.769 325.438,-515.385 266.623,-437 264.665,-434.392 262.377,-431.963 259.899,-429.717"/>
<polygon fill="none" stroke="black" points="262.061,-426.965 252.036,-423.537 257.735,-432.468 262.061,-426.965"/>
</g>
<!-- \\swoole_atomic -->
<g id="node21" class="node"><title>\\swoole_atomic</title>
<polygon fill="none" stroke="black" points="685.371,-617 583.742,-617 583.742,-581 685.371,-581 685.371,-617"/>
<text text-anchor="middle" x="634.556" y="-595.7" font-family="Courier,monospace" font-size="11.00">swoole_atomic</text>
</g>
<!-- \\swoole_atomic&#45;&gt;\\Swoole\\Atomic -->
<g id="edge7" class="edge"><title>\\swoole_atomic&#45;&gt;\\Swoole\\Atomic</title>
<path fill="none" stroke="black" d="M583.538,-599C541.016,-599 480.934,-599 442.63,-599"/>
<polygon fill="none" stroke="black" points="442.436,-595.5 432.436,-599 442.436,-602.5 442.436,-595.5"/>
</g>
<!-- \\swoole_buffer -->
<g id="node22" class="node"><title>\\swoole_buffer</title>
<polygon fill="none" stroke="black" points="685.371,-563 583.742,-563 583.742,-527 685.371,-527 685.371,-563"/>
<text text-anchor="middle" x="634.556" y="-541.7" font-family="Courier,monospace" font-size="11.00">swoole_buffer</text>
</g>
<!-- \\swoole_buffer&#45;&gt;\\Swoole\\Buffer -->
<g id="edge8" class="edge"><title>\\swoole_buffer&#45;&gt;\\Swoole\\Buffer</title>
<path fill="none" stroke="black" d="M583.538,-545C541.016,-545 480.934,-545 442.63,-545"/>
<polygon fill="none" stroke="black" points="442.436,-541.5 432.436,-545 442.436,-548.5 442.436,-541.5"/>
</g>
<!-- \\swoole_client -->
<g id="node23" class="node"><title>\\swoole_client</title>
<polygon fill="none" stroke="black" points="685.371,-509 583.742,-509 583.742,-473 685.371,-473 685.371,-509"/>
<text text-anchor="middle" x="634.556" y="-487.7" font-family="Courier,monospace" font-size="11.00">swoole_client</text>
</g>
<!-- \\swoole_client&#45;&gt;\\Swoole\\Client -->
<g id="edge9" class="edge"><title>\\swoole_client&#45;&gt;\\Swoole\\Client</title>
<path fill="none" stroke="black" d="M583.538,-491C541.016,-491 480.934,-491 442.63,-491"/>
<polygon fill="none" stroke="black" points="442.436,-487.5 432.436,-491 442.436,-494.5 442.436,-487.5"/>
</g>
<!-- \\swoole_server&#45;&gt;\\Swoole\\Server -->
<g id="edge10" class="edge"><title>\\swoole_server&#45;&gt;\\Swoole\\Server</title>
<path fill="none" stroke="black" d="M82.5476,-299.733C119.571,-254.623 221.763,-136.706 330.623,-69 341.74,-62.0856 354.898,-56.5378 366.961,-52.3125"/>
<polygon fill="none" stroke="black" points="368.37,-55.5333 376.767,-49.0734 366.174,-48.8865 368.37,-55.5333"/>
</g>
<!-- \\swoole_lock -->
<g id="node25" class="node"><title>\\swoole_lock</title>
<polygon fill="none" stroke="black" points="678.669,-455 590.444,-455 590.444,-419 678.669,-419 678.669,-455"/>
<text text-anchor="middle" x="634.556" y="-433.7" font-family="Courier,monospace" font-size="11.00">swoole_lock</text>
</g>
<!-- \\swoole_lock&#45;&gt;\\Swoole\\Lock -->
<g id="edge11" class="edge"><title>\\swoole_lock&#45;&gt;\\Swoole\\Lock</title>
<path fill="none" stroke="black" d="M590.418,-437C547.532,-437 482.475,-437 442.093,-437"/>
<polygon fill="none" stroke="black" points="441.891,-433.5 431.891,-437 441.891,-440.5 441.891,-433.5"/>
</g>
<!-- \\swoole_redis -->
<g id="node26" class="node"><title>\\swoole_redis</title>
<polygon fill="none" stroke="black" points="682.27,-401 586.843,-401 586.843,-365 682.27,-365 682.27,-401"/>
<text text-anchor="middle" x="634.556" y="-379.7" font-family="Courier,monospace" font-size="11.00">swoole_redis</text>
</g>
<!-- \\swoole_redis&#45;&gt;\\Swoole\\Redis -->
<g id="edge12" class="edge"><title>\\swoole_redis&#45;&gt;\\Swoole\\Redis</title>
<path fill="none" stroke="black" d="M586.883,-383C543.935,-383 481.122,-383 441.85,-383"/>
<polygon fill="none" stroke="black" points="441.675,-379.5 431.675,-383 441.675,-386.5 441.675,-379.5"/>
</g>
<!-- \\swoole_process -->
<g id="node27" class="node"><title>\\swoole_process</title>
<polygon fill="none" stroke="black" points="688.972,-347 580.141,-347 580.141,-311 688.972,-311 688.972,-347"/>
<text text-anchor="middle" x="634.556" y="-325.7" font-family="Courier,monospace" font-size="11.00">swoole_process</text>
</g>
<!-- \\swoole_process&#45;&gt;\\Swoole\\Process -->
<g id="edge13" class="edge"><title>\\swoole_process&#45;&gt;\\Swoole\\Process</title>
<path fill="none" stroke="black" d="M580.119,-329C539.107,-329 483.363,-329 446.023,-329"/>
<polygon fill="none" stroke="black" points="446.007,-325.5 436.007,-329 446.007,-332.5 446.007,-325.5"/>
</g>
<!-- \\swoole_table -->
<g id="node28" class="node"><title>\\swoole_table</title>
<polygon fill="none" stroke="black" points="682.27,-293 586.843,-293 586.843,-257 682.27,-257 682.27,-293"/>
<text text-anchor="middle" x="634.556" y="-271.7" font-family="Courier,monospace" font-size="11.00">swoole_table</text>
</g>
<!-- \\swoole_table&#45;&gt;\\Swoole\\Table -->
<g id="edge14" class="edge"><title>\\swoole_table&#45;&gt;\\Swoole\\Table</title>
<path fill="none" stroke="black" d="M586.883,-275C543.935,-275 481.122,-275 441.85,-275"/>
<polygon fill="none" stroke="black" points="441.675,-271.5 431.675,-275 441.675,-278.5 441.675,-271.5"/>
</g>
<!-- \\swoole_websocket_server -->
<g id="node29" class="node"><title>\\swoole_websocket_server</title>
<polygon fill="none" stroke="black" points="718.381,-222 550.732,-222 550.732,-186 718.381,-186 718.381,-222"/>
<text text-anchor="middle" x="634.556" y="-200.7" font-family="Courier,monospace" font-size="11.00">swoole_websocket_server</text>
</g>
<!-- \\swoole_websocket_server&#45;&gt;\\Swoole\\WebSocket\\Server -->
<g id="edge15" class="edge"><title>\\swoole_websocket_server&#45;&gt;\\Swoole\\WebSocket\\Server</title>
<path fill="none" stroke="black" d="M550.626,-204C513.557,-204 471.746,-204 442.582,-204"/>
<polygon fill="none" stroke="black" points="442.441,-200.5 432.441,-204 442.441,-207.5 442.441,-200.5"/>
</g>
</g>
</svg>
